<svg xmlns="http://www.w3.org/2000/svg" id="Capa_1" data-name="Capa 1" viewBox="0 0 154.27 154.37"><title>iconos-10</title><path d="M150.51,127c-.83,2.26-2.14,4.07-4.6,4.68a22.23,22.23,0,0,1-3.06.33v7.5c.45,0,.91,0,1.36.09a2,2,0,0,1,2,2.06,2.07,2.07,0,0,1-2,2.22c-.66.06-1.33,0-2,0H83c-1.68,0-2.67-.78-2.72-2.09s.92-2.13,2.58-2.21l.79-.06V132c-3.12.16-5.75-.74-7.23-3.94-3.67.44-7.37.78-11,1.37-6.45,1-12.86,2.24-19.3,3.3-1,.16-1.17.55-1.12,1.39a12.74,12.74,0,0,1,0,2.14,2.08,2.08,0,0,1-2.22,2,2,2,0,0,1-2-2c-.06-.75,0-1.51,0-2.47-4.82,1.18-9.47,2.21-14,3.48C20.22,139,13.81,141,7.37,142.89a4.56,4.56,0,0,1-1.66.34,2,2,0,0,1-1.92-1.81A2.12,2.12,0,0,1,5.48,139c3.22-1,6.43-2.09,9.69-3,1.38-.37,1.92-.93,1.83-2.42-.15-2.53,0-5.07-.08-7.6a2.32,2.32,0,0,0-.82-1.58c-8.15-6-12.38-14-12.33-24.09,0-11.78,2-23.16,7.29-33.81a51.47,51.47,0,0,1,3.85-6.36c2.19-3.17,6.29-3.27,8.38,0s3.77,6.71,5.63,10.09c.21.39.38.81.69,1.5.53-1.85.95-3.39,1.4-4.92.55-1.89,1.52-2.67,2.84-2.29S35.8,66,35.22,67.91a77.11,77.11,0,0,0-3.37,24,23.53,23.53,0,0,0,8,17.58,4.94,4.94,0,0,0,.44.36,2,2,0,0,0,.43.14c0-3.71,0-7.36,0-11,0-.47-.57-1-.93-1.39-.73-.88-1.49-1.74-2.27-2.58a2.14,2.14,0,0,1-.3-3.08,2.07,2.07,0,0,1,3.06-.32,2.37,2.37,0,0,0,.49.19c0-2.5,0-4.93,0-7.35a2,2,0,0,0-.54-1.1c-.86-1-1.75-2-2.65-3s-1.19-2-.35-3.1a2.05,2.05,0,0,1,3.05-.37,3.75,3.75,0,0,0,.52.23c0-1.71,0-3.31,0-4.92a2.16,2.16,0,1,1,4.28,0c0,3.58,0,7.16,0,10.88l1-.46a2.15,2.15,0,0,1,2.64,3.21c-.94,1.2-2,2.3-3,3.48a2.32,2.32,0,0,0-.59,1.22c0,2.38,0,4.77,0,7.3l.7-.35a2,2,0,0,1,2.83.44,2.06,2.06,0,0,1-.1,2.87c-.79,1-1.59,1.92-2.47,2.79a3,3,0,0,0-1,2.54c.09,1.26,0,2.54,0,4.1a24,24,0,0,0,7.15-9.64,25.64,25.64,0,0,0,1.76-10.79c-.36-10.48-2.07-20.68-6.68-30.21-1-2.05-2.3-4-3.46-5.92-.65-1.11-1.26-1-1.87,0-1,1.63-2,3.25-3,4.89-.83,1.42-2,1.93-3.17,1.33s-1.49-1.91-.68-3.35c1.11-1.94,2.23-3.89,3.52-5.72,2.29-3.21,6.2-3.15,8.52.05,4.56,6.28,7.21,13.41,9,20.88a80,80,0,0,1,2.11,20.45c-.27,9.53-4.45,17-12.07,22.61A2.37,2.37,0,0,0,45,117c.06,3.77,0,7.54,0,11.28l29.27-4.57c0-3.33,0-6.81,0-10.28,0-.36-.43-.81-.78-1A28.09,28.09,0,0,1,61.55,93.86a36,36,0,0,1-.42-7.27,76.52,76.52,0,0,1,4.58-25.78C67.13,57,69,53.43,70.81,49.5a21.65,21.65,0,0,0-10.9-7,22.55,22.55,0,0,0-14.2.47c-2.29.83-3.27.27-3.75-2.13a6,6,0,0,0-5-5c-2-.45-2.32-.89-2.37-2.93-.17-7-4.7-12.15-11.59-13.07-1.41-.19-2.38-.73-2.63-2.31a6,6,0,0,0-6.48-5.38,6.16,6.16,0,0,0-5.82,5.82c-.18,1.59-.84,2.4-2,2.48A2.17,2.17,0,0,1,3.77,18c-.14-5.67,5-10.6,10.9-10.3,4.5.22,7.59,2.56,9.36,6.64a2.15,2.15,0,0,0,1.64,1.47A17.1,17.1,0,0,1,38.74,30.29a2.08,2.08,0,0,0,1.43,2,9.49,9.49,0,0,1,5.21,5.07,1.1,1.1,0,0,0,1.51.76c10.15-2.27,19,.18,26.37,7.55a1.91,1.91,0,0,0,1.54.41,5.08,5.08,0,0,1,5.92,2.06C82,50,83.17,52,84.42,53.94a50.23,50.23,0,0,1,5.94-.8,4.31,4.31,0,0,0,4-2.08c2.43-3.64,5-5.28,11.31-8.12-.63-7.2,6.19-12.54,13.4-9.67a17.41,17.41,0,0,1,31.08,6.86,5.85,5.85,0,0,0,.31.92v3.44c-.86.77-1.73,1.56-3,1s-1.26-1.62-1.35-2.76a13,13,0,0,0-14.81-12,12.53,12.53,0,0,0-9.19,5.92c-1.46,2.25-2.14,2.43-4.35,1a6.31,6.31,0,0,0-.63-.34,4.69,4.69,0,0,0-5,.45,4.85,4.85,0,0,0-2.06,4.37c.37,0,.65,0,.93,0a21.77,21.77,0,0,1,15.24,5.09,27.08,27.08,0,0,1,3.56,3.7,2,2,0,0,1-.23,3.06,2.13,2.13,0,0,1-3.15-.38c-.2-.21-.38-.44-.56-.66a17.63,17.63,0,0,0-21.49-4.69,16.2,16.2,0,0,0-6.59,5.53c1,.38,1.92.67,2.8,1a22.56,22.56,0,0,1,8.29,6,2.15,2.15,0,0,1,0,3.08,2.1,2.1,0,0,1-3.08-.07c-.28-.25-.54-.54-.8-.82a18.65,18.65,0,0,0-18.74-4.79c.2.51.36.89.5,1.29.74,2.26,1.51,4.51,2.2,6.79A2.14,2.14,0,0,1,87.6,69a2.17,2.17,0,0,1-2.74-1.42c-.12-.31-.19-.64-.28-1a51.35,51.35,0,0,0-7-15.42c-1-1.42-1.18-1.42-2.21,0a47,47,0,0,0-5.72,11.48,79.35,79.35,0,0,0-4.22,25.42,23.92,23.92,0,0,0,6,16.56c.79.92,1.71,1.72,2.88,2.89,0-4.08,0-7.68,0-11.29,0-.36-.35-.75-.61-1.06-1-1.14-2-2.22-2.9-3.37a1.93,1.93,0,0,1,.05-2.63,2,2,0,0,1,2.56-.6l.93.42c0-2.47,0-4.81,0-7.15a2.55,2.55,0,0,0-.61-1.36c-.93-1.15-2-2.22-2.89-3.37a2,2,0,0,1,0-2.63,2,2,0,0,1,2.56-.64c.29.12.56.27,1,.47,0-1.72,0-3.29,0-4.86s.87-2.44,2.22-2.41,2.07.84,2.1,2.36c0,2.39,0,4.78,0,7.17v3.78c1.36-.86,2.52-1.09,3.53.07.78.91.59,2-.51,3.32a26.55,26.55,0,0,0-2.15,2.5,4.52,4.52,0,0,0-.85,2.27c-.07,5.77,0,11.55,0,17.33,0,.44,0,.88.07,1.43,2.51-1.82,2.51-1.82,2.51-5s1.33-4.85,4.34-5.72a1.57,1.57,0,0,0,.94-1,24.8,24.8,0,0,0,.91-5.48C87.33,85.8,87,81.38,86.67,77c-.11-1.62.46-2.76,1.77-2.94s2.33.52,2.55,2.22c.32,2.41.57,4.83.72,7.26.28,4.37.4,8.75-.91,13.17h49a5.08,5.08,0,0,1,5.49,5.41c0,2.73,0,5.45,0,8.17,0,2-.75,3.76-2.56,4.45s-1.6,1.72-1.66,3.07.36,1.77,1.68,1.67c2.2-.17,4.35.11,5.91,1.89a22.38,22.38,0,0,1,1.82,2.83Zm-21.46-11.53c-1.35,0-2.59.06-3.81,0a2.18,2.18,0,1,1,0-4.36c.42,0,.86,0,1.29,0,4.29,0,8.59,0,12.89,0,1.17,0,1.61-.38,1.58-1.57q-.09-3.51,0-7c0-1.19-.45-1.58-1.62-1.57-3.91,0-7.83,0-11.74,0-13.42,0-26.84,0-40.25,0-1.42,0-1.82.48-1.76,1.83.09,2.14,0,4.29,0,6.44,0,1.88,0,1.88,1.92,1.88h26.92a11.86,11.86,0,0,1,1.58,0,2.15,2.15,0,0,1,.18,4.26,6.75,6.75,0,0,1-1.56.1H97.52v3.76h31.53Zm-107.77,4a24.61,24.61,0,0,0,8.29-13.17,7.7,7.7,0,0,0-.33-5.11C27,96,27.4,90.44,27.71,84.9a14.14,14.14,0,0,0,.11-3.83,51.37,51.37,0,0,0-7.69-18c-.82-1.17-1.17-1.16-2,0a47,47,0,0,0-5.82,11.59A79.53,79.53,0,0,0,8.08,101.2a22.75,22.75,0,0,0,3.48,12.09A21.76,21.76,0,0,0,17,119.44c0-3.88,0-7.49,0-11.1a2.06,2.06,0,0,0-.61-1.07c-1-1.13-2-2.22-2.89-3.36a1.8,1.8,0,0,1,0-2.6,4.65,4.65,0,0,1,2.27-.77c.33-.05.74.33,1.24.57,0-2.5,0-4.88,0-7.26a2.51,2.51,0,0,0-.65-1.35c-.91-1.11-1.91-2.14-2.83-3.24a2,2,0,0,1-.08-2.63A2.1,2.1,0,0,1,16,85.92c.28.11.54.25.92.43,0-1.69,0-3.22,0-4.74s.85-2.5,2.14-2.52,2.15.87,2.19,2.43c0,1,0,2,0,3v7.76a3.79,3.79,0,0,0,.54-.15,2.09,2.09,0,0,1,3.05.42c.81,1.08.48,2.14-.41,3.09s-1.73,1.92-2.55,2.91a2.37,2.37,0,0,0-.6,1.23c0,2.38,0,4.75,0,7.12.22,0,.34,0,.4,0,1.16-.76,2.29-.82,3.17.34s.44,2.23-.45,3.21-1.73,1.91-2.56,2.9a2.09,2.09,0,0,0-.53,1.11C21.25,116,21.28,117.59,21.28,119.56Zm0,14.32a3,3,0,0,0,.63.05c6-1.45,12-2.89,18-4.4a1.41,1.41,0,0,0,.77-1.07c0-4,0-8,0-12a1.64,1.64,0,0,0-.42-1.11c-2.32-2-4.67-4-7-6C29.47,118,29.47,118,21.81,124.59a1.44,1.44,0,0,0-.5.93C21.27,128.28,21.29,131,21.29,133.88Zm75.44,5.66h33.05V132h-33Zm16.61-15.71H86.26c-1.34,0-2.68,0-4,0a1.71,1.71,0,0,0-1.81,1.81,1.8,1.8,0,0,0,1.71,1.94,6.68,6.68,0,0,0,1,0h60.33a4.8,4.8,0,0,0,1.14,0,1.85,1.85,0,0,0,1.54-2,1.75,1.75,0,0,0-1.73-1.77c-.42,0-.86,0-1.29,0Zm-34.7-3.75,6.73-.91v-3.76A5.54,5.54,0,0,1,81.2,111c-1,.9-2.33,1.57-2.45,2.42A47.39,47.39,0,0,0,78.64,120.08Zm59.64,19.47v-7.5h-4v7.5Zm-46-7.53h-4v7.49h4ZM93,119.31v-3.68H89.81v3.68Zm40.61,0h3.06v-3.67H133.6Z"></path><path d="M66.41,140.72c-.58,1.89-.94,3.42-1.55,4.85a1.89,1.89,0,0,1-2.56.91,2,2,0,0,1-1.39-2.36A25.61,25.61,0,0,1,62,140.3,1.81,1.81,0,0,1,64.38,139,8.2,8.2,0,0,1,66.41,140.72Z"></path><path d="M58.69,144.82a7.91,7.91,0,0,1-1.89,1.67,1.74,1.74,0,0,1-2.39-1,22.41,22.41,0,0,1-1.21-4.25,1.93,1.93,0,0,1,1.47-2.18,1.86,1.86,0,0,1,2.45.9A48.29,48.29,0,0,1,58.69,144.82Z"></path></svg>